<?xml version="1.0" encoding="utf-8"?>
<svg width="273px" height="278px" viewBox="0 0 273 278" version="1.1" xmlns:xlink="http://www.w3.org/1999/xlink" xmlns="http://www.w3.org/2000/svg">
  <desc>Created with Lunacy</desc>
  <defs>
    <path d="M2.67844 1.35127L53.2532 26.8662Q53.482 26.9816 53.7072 27.1186Q53.9325 27.2555 54.1524 27.4129Q54.3723 27.5702 54.585 27.7467Q54.7978 27.9232 55.0016 28.1173Q55.2054 28.3115 55.3987 28.5217Q55.592 28.732 55.7731 28.9566Q55.9542 29.1813 56.1217 29.4184Q56.2893 29.6556 56.4418 29.9034Q56.5943 30.1512 56.7306 30.4076Q56.8669 30.664 56.9859 30.9269Q57.1049 31.1898 57.2055 31.4571Q57.3062 31.7243 57.3877 31.9938Q57.4693 32.2632 57.531 32.5326Q57.5927 32.802 57.6342 33.0692Q57.6756 33.3364 57.6964 33.5992Q57.7172 33.862 57.7172 34.1183L57.7172 143.694Q57.7172 144.13 57.7035 144.577Q57.6898 145.024 57.6624 145.481Q57.635 145.938 57.594 146.405Q57.553 146.872 57.4984 147.347Q57.4438 147.823 57.3758 148.306Q57.3078 148.789 57.2265 149.278Q57.1452 149.768 57.0508 150.263Q56.9564 150.759 56.849 151.259Q56.7416 151.759 56.6216 152.262Q56.5015 152.766 56.3689 153.272Q56.2364 153.778 56.0916 154.286Q55.9469 154.793 55.7902 155.301Q55.6335 155.81 55.4653 156.317Q55.297 156.825 55.1175 157.331Q54.938 157.837 54.7477 158.341Q54.5573 158.844 54.3564 159.344Q54.1556 159.844 53.9446 160.339Q53.7337 160.834 53.5131 161.324Q53.2925 161.813 53.0627 162.296Q52.8329 162.779 52.5944 163.255Q52.3559 163.73 52.1091 164.197Q51.8624 164.663 51.6079 165.12Q51.3534 165.577 51.0917 166.024Q50.8299 166.471 50.5615 166.906Q50.2931 167.341 50.0186 167.764Q49.744 168.187 49.4639 168.597Q49.1838 169.007 48.8986 169.402Q48.6135 169.798 48.3239 170.179Q48.0343 170.56 47.7409 170.926Q47.4475 171.291 47.1509 171.64Q46.8543 171.989 46.555 172.321Q46.2557 172.653 45.9544 172.968L2.76772 218.029Q2.69683 218.103 2.62641 218.172Q2.55599 218.241 2.4862 218.304Q2.4164 218.368 2.34736 218.426Q2.27833 218.484 2.2102 218.537Q2.14206 218.589 2.07497 218.636Q2.00788 218.683 1.94197 218.724Q1.87606 218.765 1.81145 218.8Q1.74685 218.836 1.6837 218.865Q1.62054 218.894 1.55896 218.918Q1.49738 218.941 1.4375 218.959Q1.37761 218.976 1.31955 218.987Q1.26149 218.999 1.20537 219.004Q1.14925 219.009 1.09518 219.009Q1.04111 219.008 0.989207 219.001Q0.937304 218.994 0.887671 218.981Q0.838038 218.968 0.790777 218.949Q0.743515 218.93 0.698722 218.905Q0.653929 218.88 0.611695 218.849Q0.569461 218.818 0.529873 218.781Q0.490285 218.745 0.453423 218.702Q0.416562 218.659 0.382501 218.611Q0.348441 218.563 0.317252 218.509Q0.286063 218.455 0.257808 218.395Q0.229554 218.336 0.204291 218.271Q0.179029 218.206 0.156811 218.136Q0.134592 218.065 0.115463 217.99Q0.096334 217.915 0.0803331 217.834Q0.0643321 217.754 0.0514919 217.669Q0.0386518 217.584 0.0289987 217.494Q0.0193456 217.405 0.0128993 217.311Q0.00645294 217.216 0.00322647 217.118Q0 217.02 0 216.917L0 3Q0 2.84624 0.0124832 2.70115Q0.0249664 2.55606 0.049831 2.42083Q0.0746957 2.28559 0.111739 2.16132Q0.148782 2.03705 0.197702 1.92474Q0.246621 1.81244 0.307019 1.71303Q0.367416 1.61362 0.438798 1.5279Q0.51018 1.44219 0.591965 1.37087Q0.673749 1.29956 0.76527 1.24322Q0.85679 1.18689 0.9573 1.14599Q1.05781 1.10509 1.16649 1.07997Q1.27517 1.05485 1.39113 1.0457Q1.50709 1.03656 1.62939 1.04346Q1.75169 1.05037 1.87933 1.07327Q2.00697 1.09618 2.13891 1.13489Q2.27084 1.1736 2.406 1.22781Q2.54116 1.28202 2.67844 1.35127Z" id="path_1" />
    <path d="M5.49701 21.5073L45.4612 1.35098Q45.5985 1.28173 45.7337 1.22754Q45.8689 1.17335 46.0009 1.13465Q46.1328 1.09595 46.2605 1.07306Q46.3882 1.05018 46.5106 1.04328Q46.633 1.03639 46.749 1.04555Q46.865 1.0547 46.9738 1.07984Q47.0826 1.10497 47.1832 1.14588Q47.2838 1.18679 47.3755 1.24314Q47.4671 1.29948 47.549 1.37081Q47.6309 1.44213 47.7024 1.52785Q47.774 1.61357 47.8345 1.71299Q47.8951 1.81241 47.9441 1.92472Q47.9932 2.03703 48.0304 2.16131Q48.0676 2.28558 48.0926 2.42082Q48.1177 2.55606 48.1303 2.70115Q48.143 2.84624 48.1431 3L48.2916 137.791Q48.2918 137.944 48.2822 138.086Q48.2725 138.227 48.2532 138.355Q48.2338 138.483 48.2049 138.597Q48.1759 138.71 48.1377 138.808Q48.0994 138.906 48.0521 138.987Q48.0049 139.069 47.9489 139.134Q47.893 139.198 47.8289 139.246Q47.7649 139.293 47.6931 139.322Q47.6214 139.352 47.5425 139.363Q47.4637 139.374 47.3785 139.368Q47.2932 139.361 47.2023 139.336Q47.1113 139.311 47.0153 139.268Q46.9193 139.225 46.8192 139.164Q46.719 139.104 46.6154 139.026Q46.5119 138.949 46.4058 138.855Q46.2996 138.761 46.1919 138.651L10.5153 102.358Q10.246 102.084 9.97848 101.794Q9.71099 101.505 9.44588 101.2Q9.18078 100.895 8.9186 100.576Q8.65643 100.257 8.39771 99.9241Q8.139 99.5912 7.88428 99.2452Q7.62957 98.8991 7.37936 98.5407Q7.12915 98.1823 6.88397 97.8122Q6.63879 97.4421 6.39913 97.0611Q6.15946 96.6801 5.92582 96.289Q5.69217 95.8978 5.465 95.4973Q5.23784 95.0969 5.01763 94.6879Q4.79742 94.2789 4.58461 93.8622Q4.37181 93.4455 4.16683 93.022Q3.96186 92.5984 3.76514 92.169Q3.56842 91.7395 3.38035 91.3049Q3.19229 90.8703 3.01326 90.4315Q2.83423 89.9927 2.66461 89.5506Q2.49498 89.1084 2.33511 88.6639Q2.17524 88.2194 2.02544 87.7733Q1.87564 87.3273 1.73622 86.8807Q1.5968 86.4341 1.46805 85.9877Q1.3393 85.5414 1.22148 85.0963Q1.10365 84.6513 0.996997 84.2083Q0.890343 83.7654 0.795074 83.3254Q0.699806 82.8855 0.616118 82.4495Q0.53243 82.0136 0.460494 81.5824Q0.388557 81.1512 0.328519 80.7258Q0.268481 80.3003 0.220463 79.8815Q0.172445 79.4626 0.136546 79.0511Q0.100647 78.6397 0.0769396 78.2365Q0.0532323 77.8333 0.0417652 77.4392Q0.0302981 77.0451 0.0310945 76.6609L0.127387 30.2093Q0.128025 29.9018 0.15362 29.5864Q0.179216 29.271 0.22956 28.9504Q0.279905 28.6297 0.354588 28.3065Q0.429272 27.9832 0.527685 27.6598Q0.626097 27.3365 0.747437 27.0158Q0.868777 26.6952 1.01205 26.3797Q1.15533 26.0642 1.31938 25.7566Q1.48342 25.4489 1.6669 25.1516Q1.85037 24.8542 2.05178 24.5696Q2.25319 24.285 2.47089 24.0155Q2.6886 23.746 2.92081 23.4937Q3.15303 23.2414 3.39787 23.0085Q3.64271 22.7755 3.89817 22.5638Q4.15364 22.352 4.41764 22.1632Q4.68165 21.9744 4.95204 21.8101Q5.22244 21.6458 5.49701 21.5073Z" id="path_2" />
    <path d="M2.7812 2.87488L48.3062 49.9333Q48.5911 50.2278 48.8741 50.539Q49.1572 50.8503 49.4377 51.1775Q49.7183 51.5048 49.9958 51.8474Q50.2733 52.1901 50.5471 52.5474Q50.821 52.9047 51.0906 53.276Q51.3603 53.6472 51.6253 54.0317Q51.8902 54.4161 52.1498 54.813Q52.4095 55.2098 52.6634 55.6182Q52.9172 56.0267 53.1647 56.4459Q53.4123 56.8651 53.653 57.2942Q53.8937 57.7233 54.127 58.1614Q54.3604 58.5996 54.586 59.0459Q54.8116 59.4921 55.0289 59.9456Q55.2462 60.3991 55.4549 60.8589Q55.6635 61.3187 55.863 61.7839Q56.0625 62.2491 56.2524 62.7186Q56.4424 63.1882 56.6225 63.6613Q56.8025 64.1343 56.9723 64.6098Q57.142 65.0854 57.3011 65.5624Q57.4603 66.0394 57.6084 66.517Q57.7566 66.9946 57.8935 67.4718Q58.0304 67.949 58.1558 68.4247Q58.2811 68.9005 58.3947 69.3739Q58.5083 69.8473 58.6098 70.3174Q58.7113 70.7874 58.8007 71.2532Q58.89 71.7189 58.9669 72.1795Q59.0437 72.64 59.1081 73.0943Q59.1724 73.5486 59.224 73.9959Q59.2756 74.4431 59.3144 74.8823Q59.3532 75.3215 59.3791 75.7517Q59.405 76.182 59.418 76.6025Q59.431 77.023 59.431 77.4328L59.431 135.985Q59.431 136.19 59.4226 136.398Q59.4143 136.605 59.3977 136.816Q59.3811 137.026 59.3562 137.238Q59.3313 137.45 59.2982 137.664Q59.2651 137.878 59.2238 138.092Q59.1826 138.307 59.1333 138.523Q59.0839 138.738 59.0266 138.954Q58.9694 139.17 58.9042 139.385Q58.8391 139.601 58.7662 139.816Q58.6934 140.031 58.613 140.244Q58.5325 140.458 58.4447 140.671Q58.3569 140.883 58.2618 141.093Q58.1668 141.304 58.0647 141.512Q57.9627 141.72 57.8538 141.925Q57.7449 142.13 57.6294 142.332Q57.5139 142.534 57.392 142.732Q57.2702 142.931 57.1422 143.125Q57.0142 143.319 56.8804 143.509Q56.7466 143.699 56.6071 143.884Q56.4677 144.069 56.323 144.249Q56.1783 144.429 56.0286 144.603Q55.8789 144.778 55.7245 144.946Q55.5701 145.114 55.4113 145.277Q55.2525 145.439 55.0897 145.594Q54.9269 145.75 54.7603 145.898Q54.5937 146.047 54.4238 146.188Q54.2538 146.33 54.0808 146.464Q53.9078 146.597 53.7322 146.724Q53.5565 146.85 53.3785 146.968Q53.2005 147.086 53.0205 147.196Q52.8406 147.306 52.659 147.407Q52.4774 147.508 52.2946 147.601L3.56815 172.288Q3.38527 172.381 3.20522 172.454Q3.02516 172.526 2.84939 172.578Q2.67363 172.63 2.50359 172.661Q2.33356 172.692 2.17063 172.701Q2.00771 172.711 1.85323 172.699Q1.69874 172.687 1.55397 172.654Q1.40919 172.62 1.27529 172.566Q1.14139 172.512 1.01947 172.437Q0.897551 172.362 0.7886 172.267Q0.679648 172.172 0.584555 172.058Q0.489462 171.944 0.409002 171.812Q0.328543 171.679 0.263373 171.53Q0.198204 171.38 0.148856 171.214Q0.0995076 171.049 0.0663836 170.868Q0.0332596 170.688 0.0166298 170.495Q-1.05571e-13 170.301 -1.05571e-13 170.096L-1.05571e-13 4Q-1.05571e-13 3.89754 0.00324218 3.79913Q0.00648437 3.70071 0.0129621 3.60653Q0.0194399 3.51236 0.02914 3.42261Q0.0388401 3.33287 0.0517428 3.24774Q0.0646454 3.16261 0.0807243 3.08226Q0.0968033 3.00192 0.116026 2.92653Q0.135248 2.85114 0.157575 2.78086Q0.179901 2.71057 0.205286 2.64554Q0.230672 2.58051 0.259064 2.52085Q0.287456 2.4612 0.318797 2.40705Q0.350138 2.35291 0.384364 2.30437Q0.41859 2.25584 0.455632 2.21302Q0.492673 2.1702 0.532454 2.13318Q0.572235 2.09616 0.614675 2.06501Q0.657114 2.03387 0.702126 2.00867Q0.747137 1.98346 0.794628 1.96425Q0.84212 1.94504 0.891995 1.93186Q0.941869 1.91867 0.994025 1.91155Q1.04618 1.90443 1.10051 1.90337Q1.15484 1.90232 1.21124 1.90734Q1.26763 1.91236 1.32598 1.92345Q1.38432 1.93453 1.4445 1.95166Q1.50467 1.96878 1.56655 1.99191Q1.62844 2.01505 1.6919 2.04414Q1.75536 2.07323 1.82028 2.10822Q1.88519 2.14321 1.95143 2.18403Q2.01766 2.22485 2.08508 2.27141Q2.1525 2.31798 2.22096 2.37019Q2.28943 2.4224 2.3588 2.48016Q2.42817 2.53792 2.49831 2.6011Q2.56844 2.66428 2.6392 2.73276Q2.70996 2.80124 2.7812 2.87488Z" transform="translate(-7.390976E-06 0)" id="path_3" />
    <path d="M8.17658 32.5943L67.7967 2.26695Q67.9109 2.20888 68.0243 2.15703Q68.1377 2.10519 68.25 2.05966Q68.3624 2.01414 68.4736 1.97504Q68.5847 1.93593 68.6945 1.90332Q68.8042 1.87071 68.9122 1.84467Q69.0202 1.81862 69.1264 1.79919Q69.2325 1.77976 69.3365 1.76699Q69.4405 1.75421 69.5422 1.74812Q69.6439 1.74203 69.7431 1.74263Q69.8422 1.74324 69.9387 1.75053Q70.0351 1.75783 70.1286 1.77181Q70.2221 1.78578 70.3124 1.8064Q70.4028 1.82703 70.4899 1.85426Q70.5769 1.8815 70.6605 1.91528Q70.7441 1.94906 70.824 1.98933Q70.9039 2.0296 70.98 2.07627Q71.0561 2.12294 71.1282 2.17592Q71.2003 2.22889 71.2684 2.28806Q71.3364 2.34724 71.4001 2.41249Q71.4639 2.47774 71.5232 2.54893Q71.5826 2.62013 71.6374 2.69712Q71.6922 2.77411 71.7425 2.85675Q71.7927 2.93938 71.8382 3.02749Q71.8837 3.1156 71.9244 3.209Q71.965 3.3024 72.0008 3.40091Q72.0366 3.49941 72.0674 3.60282Q72.0982 3.70623 72.1239 3.81432Q72.1497 3.92242 72.1704 4.03499Q72.1911 4.14756 72.2066 4.26437Q72.2222 4.38117 72.2325 4.50199Q72.2429 4.6228 72.2481 4.74736Q72.2533 4.87193 72.2533 5L72.2533 270.424Q72.2533 270.55 72.2493 270.67Q72.2454 270.791 72.2374 270.906Q72.2295 271.022 72.2176 271.132Q72.2057 271.242 72.1899 271.346Q72.1741 271.45 72.1544 271.549Q72.1347 271.647 72.1112 271.739Q72.0876 271.832 72.0603 271.918Q72.0329 272.004 72.0018 272.084Q71.9707 272.163 71.9359 272.236Q71.9011 272.309 71.8627 272.376Q71.8244 272.442 71.7824 272.501Q71.7405 272.561 71.6951 272.613Q71.6497 272.666 71.601 272.711Q71.5523 272.757 71.5003 272.795Q71.4483 272.833 71.3931 272.864Q71.338 272.895 71.2798 272.918Q71.2216 272.942 71.1605 272.958Q71.0994 272.974 71.0355 272.983Q70.9716 272.991 70.9051 272.993Q70.8385 272.994 70.7694 272.988Q70.7003 272.982 70.6288 272.968Q70.5574 272.955 70.4837 272.934Q70.4099 272.913 70.3341 272.884Q70.2583 272.856 70.1806 272.82Q70.1028 272.785 70.0233 272.742Q69.9438 272.699 69.8626 272.649Q69.7815 272.599 69.6989 272.542Q69.6163 272.485 69.5324 272.421Q69.4485 272.357 69.3635 272.286Q69.2785 272.216 69.1926 272.138Q69.1067 272.061 69.02 271.977Q68.9333 271.893 68.846 271.803L13.9071 215.022Q13.5509 214.654 13.1971 214.265Q12.8433 213.876 12.4926 213.467Q12.142 213.058 11.7952 212.63Q11.4483 212.202 11.1061 211.755Q10.7638 211.308 10.4268 210.844Q10.0898 210.38 9.75873 209.9Q9.42766 209.419 9.10321 208.923Q8.77876 208.427 8.46159 207.917Q8.14442 207.406 7.83518 206.882Q7.52594 206.358 7.22525 205.822Q6.92456 205.285 6.63305 204.738Q6.34154 204.19 6.05979 203.632Q5.77804 203.075 5.50663 202.508Q5.23522 201.941 4.97471 201.366Q4.71419 200.791 4.46511 200.21Q4.21602 199.628 3.97886 199.042Q3.74171 198.455 3.51697 197.863Q3.29223 197.272 3.08037 196.678Q2.86851 196.083 2.66996 195.487Q2.47141 194.891 2.28657 194.294Q2.10173 193.697 1.93098 193.1Q1.76023 192.504 1.60392 191.909Q1.44761 191.314 1.30606 190.723Q1.16451 190.131 1.038 189.543Q0.911494 188.956 0.800292 188.374Q0.689091 187.791 0.593421 187.216Q0.497751 186.64 0.417807 186.072Q0.337863 185.504 0.273809 184.945Q0.209755 184.386 0.161722 183.837Q0.113688 183.288 0.0817726 182.75Q0.0498572 182.213 0.0341252 181.687Q0.0183933 181.161 0.0188768 180.649L0.146271 45.6748Q0.146488 45.4442 0.156056 45.2105Q0.165624 44.9768 0.184522 44.7403Q0.20342 44.5038 0.231609 44.2651Q0.259799 44.0264 0.297224 43.7859Q0.334648 43.5454 0.38123 43.3037Q0.427813 43.0619 0.483458 42.8194Q0.539103 42.5768 0.603698 42.334Q0.668293 42.0912 0.741706 41.8486Q0.815118 41.606 0.897199 41.3641Q0.979279 41.1222 1.06986 40.8815Q1.16044 40.6407 1.25934 40.4017Q1.35823 40.1627 1.46525 39.9259Q1.57226 39.689 1.68716 39.4548Q1.80207 39.2207 1.92464 38.9896Q2.0472 38.7586 2.17718 38.5311Q2.30716 38.3037 2.44429 38.0803Q2.58141 37.857 2.7254 37.6381Q2.86939 37.4193 3.01996 37.2055Q3.17052 36.9916 3.32735 36.7832Q3.48418 36.5747 3.64695 36.3721Q3.80973 36.1695 3.97811 35.9731Q4.1465 35.7768 4.32016 35.5871Q4.49382 35.3974 4.67239 35.2147Q4.85096 35.032 5.03409 34.8568Q5.21721 34.6815 5.40451 34.514Q5.59182 34.3465 5.78291 34.1872Q5.97401 34.0278 6.16851 33.8768Q6.36302 33.7259 6.56053 33.5837Q6.75804 33.4415 6.95816 33.3083Q7.15828 33.1751 7.36059 33.0513Q7.56291 32.9274 7.76701 32.8131Q7.97111 32.6988 8.17658 32.5943Z" id="path_4" />
    <clipPath id="mask_1">
      <use xlink:href="#path_1" />
    </clipPath>
    <clipPath id="mask_2">
      <use xlink:href="#path_2" />
    </clipPath>
    <clipPath id="mask_3">
      <use xlink:href="#path_3" />
    </clipPath>
    <clipPath id="mask_4">
      <use xlink:href="#path_4" />
    </clipPath>
  </defs>
  <g id="adheedkshapessvg">
    <g id="Rectangle" transform="translate(0 48.15625)">
      <path d="M2.67844 1.35127L53.2532 26.8662Q53.482 26.9816 53.7072 27.1186Q53.9325 27.2555 54.1524 27.4129Q54.3723 27.5702 54.585 27.7467Q54.7978 27.9232 55.0016 28.1173Q55.2054 28.3115 55.3987 28.5217Q55.592 28.732 55.7731 28.9566Q55.9542 29.1813 56.1217 29.4184Q56.2893 29.6556 56.4418 29.9034Q56.5943 30.1512 56.7306 30.4076Q56.8669 30.664 56.9859 30.9269Q57.1049 31.1898 57.2055 31.4571Q57.3062 31.7243 57.3877 31.9938Q57.4693 32.2632 57.531 32.5326Q57.5927 32.802 57.6342 33.0692Q57.6756 33.3364 57.6964 33.5992Q57.7172 33.862 57.7172 34.1183L57.7172 143.694Q57.7172 144.13 57.7035 144.577Q57.6898 145.024 57.6624 145.481Q57.635 145.938 57.594 146.405Q57.553 146.872 57.4984 147.347Q57.4438 147.823 57.3758 148.306Q57.3078 148.789 57.2265 149.278Q57.1452 149.768 57.0508 150.263Q56.9564 150.759 56.849 151.259Q56.7416 151.759 56.6216 152.262Q56.5015 152.766 56.3689 153.272Q56.2364 153.778 56.0916 154.286Q55.9469 154.793 55.7902 155.301Q55.6335 155.81 55.4653 156.317Q55.297 156.825 55.1175 157.331Q54.938 157.837 54.7477 158.341Q54.5573 158.844 54.3564 159.344Q54.1556 159.844 53.9446 160.339Q53.7337 160.834 53.5131 161.324Q53.2925 161.813 53.0627 162.296Q52.8329 162.779 52.5944 163.255Q52.3559 163.73 52.1091 164.197Q51.8624 164.663 51.6079 165.12Q51.3534 165.577 51.0917 166.024Q50.8299 166.471 50.5615 166.906Q50.2931 167.341 50.0186 167.764Q49.744 168.187 49.4639 168.597Q49.1838 169.007 48.8986 169.402Q48.6135 169.798 48.3239 170.179Q48.0343 170.56 47.7409 170.926Q47.4475 171.291 47.1509 171.64Q46.8543 171.989 46.555 172.321Q46.2557 172.653 45.9544 172.968L2.76772 218.029Q2.69683 218.103 2.62641 218.172Q2.55599 218.241 2.4862 218.304Q2.4164 218.368 2.34736 218.426Q2.27833 218.484 2.2102 218.537Q2.14206 218.589 2.07497 218.636Q2.00788 218.683 1.94197 218.724Q1.87606 218.765 1.81145 218.8Q1.74685 218.836 1.6837 218.865Q1.62054 218.894 1.55896 218.918Q1.49738 218.941 1.4375 218.959Q1.37761 218.976 1.31955 218.987Q1.26149 218.999 1.20537 219.004Q1.14925 219.009 1.09518 219.009Q1.04111 219.008 0.989207 219.001Q0.937304 218.994 0.887671 218.981Q0.838038 218.968 0.790777 218.949Q0.743515 218.93 0.698722 218.905Q0.653929 218.88 0.611695 218.849Q0.569461 218.818 0.529873 218.781Q0.490285 218.745 0.453423 218.702Q0.416562 218.659 0.382501 218.611Q0.348441 218.563 0.317252 218.509Q0.286063 218.455 0.257808 218.395Q0.229554 218.336 0.204291 218.271Q0.179029 218.206 0.156811 218.136Q0.134592 218.065 0.115463 217.99Q0.096334 217.915 0.0803331 217.834Q0.0643321 217.754 0.0514919 217.669Q0.0386518 217.584 0.0289987 217.494Q0.0193456 217.405 0.0128993 217.311Q0.00645294 217.216 0.00322647 217.118Q0 217.02 0 216.917L0 3Q0 2.84624 0.0124832 2.70115Q0.0249664 2.55606 0.049831 2.42083Q0.0746957 2.28559 0.111739 2.16132Q0.148782 2.03705 0.197702 1.92474Q0.246621 1.81244 0.307019 1.71303Q0.367416 1.61362 0.438798 1.5279Q0.51018 1.44219 0.591965 1.37087Q0.673749 1.29956 0.76527 1.24322Q0.85679 1.18689 0.9573 1.14599Q1.05781 1.10509 1.16649 1.07997Q1.27517 1.05485 1.39113 1.0457Q1.50709 1.03656 1.62939 1.04346Q1.75169 1.05037 1.87933 1.07327Q2.00697 1.09618 2.13891 1.13489Q2.27084 1.1736 2.406 1.22781Q2.54116 1.28202 2.67844 1.35127Z" id="Mask" fill="#FFFFFF" stroke="none" />
    </g>
    <g id="Rectangle" transform="translate(69.19008 137.1545)">
      <path d="M5.49701 21.5073L45.4612 1.35098Q45.5985 1.28173 45.7337 1.22754Q45.8689 1.17335 46.0009 1.13465Q46.1328 1.09595 46.2605 1.07306Q46.3882 1.05018 46.5106 1.04328Q46.633 1.03639 46.749 1.04555Q46.865 1.0547 46.9738 1.07984Q47.0826 1.10497 47.1832 1.14588Q47.2838 1.18679 47.3755 1.24314Q47.4671 1.29948 47.549 1.37081Q47.6309 1.44213 47.7024 1.52785Q47.774 1.61357 47.8345 1.71299Q47.8951 1.81241 47.9441 1.92472Q47.9932 2.03703 48.0304 2.16131Q48.0676 2.28558 48.0926 2.42082Q48.1177 2.55606 48.1303 2.70115Q48.143 2.84624 48.1431 3L48.2916 137.791Q48.2918 137.944 48.2822 138.086Q48.2725 138.227 48.2532 138.355Q48.2338 138.483 48.2049 138.597Q48.1759 138.71 48.1377 138.808Q48.0994 138.906 48.0521 138.987Q48.0049 139.069 47.9489 139.134Q47.893 139.198 47.8289 139.246Q47.7649 139.293 47.6931 139.322Q47.6214 139.352 47.5425 139.363Q47.4637 139.374 47.3785 139.368Q47.2932 139.361 47.2023 139.336Q47.1113 139.311 47.0153 139.268Q46.9193 139.225 46.8192 139.164Q46.719 139.104 46.6154 139.026Q46.5119 138.949 46.4058 138.855Q46.2996 138.761 46.1919 138.651L10.5153 102.358Q10.246 102.084 9.97848 101.794Q9.71099 101.505 9.44588 101.2Q9.18078 100.895 8.9186 100.576Q8.65643 100.257 8.39771 99.9241Q8.139 99.5912 7.88428 99.2452Q7.62957 98.8991 7.37936 98.5407Q7.12915 98.1823 6.88397 97.8122Q6.63879 97.4421 6.39913 97.0611Q6.15946 96.6801 5.92582 96.289Q5.69217 95.8978 5.465 95.4973Q5.23784 95.0969 5.01763 94.6879Q4.79742 94.2789 4.58461 93.8622Q4.37181 93.4455 4.16683 93.022Q3.96186 92.5984 3.76514 92.169Q3.56842 91.7395 3.38035 91.3049Q3.19229 90.8703 3.01326 90.4315Q2.83423 89.9927 2.66461 89.5506Q2.49498 89.1084 2.33511 88.6639Q2.17524 88.2194 2.02544 87.7733Q1.87564 87.3273 1.73622 86.8807Q1.5968 86.4341 1.46805 85.9877Q1.3393 85.5414 1.22148 85.0963Q1.10365 84.6513 0.996997 84.2083Q0.890343 83.7654 0.795074 83.3254Q0.699806 82.8855 0.616118 82.4495Q0.53243 82.0136 0.460494 81.5824Q0.388557 81.1512 0.328519 80.7258Q0.268481 80.3003 0.220463 79.8815Q0.172445 79.4626 0.136546 79.0511Q0.100647 78.6397 0.0769396 78.2365Q0.0532323 77.8333 0.0417652 77.4392Q0.0302981 77.0451 0.0310945 76.6609L0.127387 30.2093Q0.128025 29.9018 0.15362 29.5864Q0.179216 29.271 0.22956 28.9504Q0.279905 28.6297 0.354588 28.3065Q0.429272 27.9832 0.527685 27.6598Q0.626097 27.3365 0.747437 27.0158Q0.868777 26.6952 1.01205 26.3797Q1.15533 26.0642 1.31938 25.7566Q1.48342 25.4489 1.6669 25.1516Q1.85037 24.8542 2.05178 24.5696Q2.25319 24.285 2.47089 24.0155Q2.6886 23.746 2.92081 23.4937Q3.15303 23.2414 3.39787 23.0085Q3.64271 22.7755 3.89817 22.5638Q4.15364 22.352 4.41764 22.1632Q4.68165 21.9744 4.95204 21.8101Q5.22244 21.6458 5.49701 21.5073Z" id="Mask" fill="#FFFFFF" stroke="none" />
    </g>
    <g id="Rectangle" transform="translate(128.899 80.83154)">
      <path d="M2.7812 2.87488L48.3062 49.9333Q48.5911 50.2278 48.8741 50.539Q49.1572 50.8503 49.4377 51.1775Q49.7183 51.5048 49.9958 51.8474Q50.2733 52.1901 50.5471 52.5474Q50.821 52.9047 51.0906 53.276Q51.3603 53.6472 51.6253 54.0317Q51.8902 54.4161 52.1498 54.813Q52.4095 55.2098 52.6634 55.6182Q52.9172 56.0267 53.1647 56.4459Q53.4123 56.8651 53.653 57.2942Q53.8937 57.7233 54.127 58.1614Q54.3604 58.5996 54.586 59.0459Q54.8116 59.4921 55.0289 59.9456Q55.2462 60.3991 55.4549 60.8589Q55.6635 61.3187 55.863 61.7839Q56.0625 62.2491 56.2524 62.7186Q56.4424 63.1882 56.6225 63.6613Q56.8025 64.1343 56.9723 64.6098Q57.142 65.0854 57.3011 65.5624Q57.4603 66.0394 57.6084 66.517Q57.7566 66.9946 57.8935 67.4718Q58.0304 67.949 58.1558 68.4247Q58.2811 68.9005 58.3947 69.3739Q58.5083 69.8473 58.6098 70.3174Q58.7113 70.7874 58.8007 71.2532Q58.89 71.7189 58.9669 72.1795Q59.0437 72.64 59.1081 73.0943Q59.1724 73.5486 59.224 73.9959Q59.2756 74.4431 59.3144 74.8823Q59.3532 75.3215 59.3791 75.7517Q59.405 76.182 59.418 76.6025Q59.431 77.023 59.431 77.4328L59.431 135.985Q59.431 136.19 59.4226 136.398Q59.4143 136.605 59.3977 136.816Q59.3811 137.026 59.3562 137.238Q59.3313 137.45 59.2982 137.664Q59.2651 137.878 59.2238 138.092Q59.1826 138.307 59.1333 138.523Q59.0839 138.738 59.0266 138.954Q58.9694 139.17 58.9042 139.385Q58.8391 139.601 58.7662 139.816Q58.6934 140.031 58.613 140.244Q58.5325 140.458 58.4447 140.671Q58.3569 140.883 58.2618 141.093Q58.1668 141.304 58.0647 141.512Q57.9627 141.72 57.8538 141.925Q57.7449 142.13 57.6294 142.332Q57.5139 142.534 57.392 142.732Q57.2702 142.931 57.1422 143.125Q57.0142 143.319 56.8804 143.509Q56.7466 143.699 56.6071 143.884Q56.4677 144.069 56.323 144.249Q56.1783 144.429 56.0286 144.603Q55.8789 144.778 55.7245 144.946Q55.5701 145.114 55.4113 145.277Q55.2525 145.439 55.0897 145.594Q54.9269 145.75 54.7603 145.898Q54.5937 146.047 54.4238 146.188Q54.2538 146.33 54.0808 146.464Q53.9078 146.597 53.7322 146.724Q53.5565 146.85 53.3785 146.968Q53.2005 147.086 53.0205 147.196Q52.8406 147.306 52.659 147.407Q52.4774 147.508 52.2946 147.601L3.56815 172.288Q3.38527 172.381 3.20522 172.454Q3.02516 172.526 2.84939 172.578Q2.67363 172.63 2.50359 172.661Q2.33356 172.692 2.17063 172.701Q2.00771 172.711 1.85323 172.699Q1.69874 172.687 1.55397 172.654Q1.40919 172.62 1.27529 172.566Q1.14139 172.512 1.01947 172.437Q0.897551 172.362 0.7886 172.267Q0.679648 172.172 0.584555 172.058Q0.489462 171.944 0.409002 171.812Q0.328543 171.679 0.263373 171.53Q0.198204 171.38 0.148856 171.214Q0.0995076 171.049 0.0663836 170.868Q0.0332596 170.688 0.0166298 170.495Q-1.05571e-13 170.301 -1.05571e-13 170.096L-1.05571e-13 4Q-1.05571e-13 3.89754 0.00324218 3.79913Q0.00648437 3.70071 0.0129621 3.60653Q0.0194399 3.51236 0.02914 3.42261Q0.0388401 3.33287 0.0517428 3.24774Q0.0646454 3.16261 0.0807243 3.08226Q0.0968033 3.00192 0.116026 2.92653Q0.135248 2.85114 0.157575 2.78086Q0.179901 2.71057 0.205286 2.64554Q0.230672 2.58051 0.259064 2.52085Q0.287456 2.4612 0.318797 2.40705Q0.350138 2.35291 0.384364 2.30437Q0.41859 2.25584 0.455632 2.21302Q0.492673 2.1702 0.532454 2.13318Q0.572235 2.09616 0.614675 2.06501Q0.657114 2.03387 0.702126 2.00867Q0.747137 1.98346 0.794628 1.96425Q0.84212 1.94504 0.891995 1.93186Q0.941869 1.91867 0.994025 1.91155Q1.04618 1.90443 1.10051 1.90337Q1.15484 1.90232 1.21124 1.90734Q1.26763 1.91236 1.32598 1.92345Q1.38432 1.93453 1.4445 1.95166Q1.50467 1.96878 1.56655 1.99191Q1.62844 2.01505 1.6919 2.04414Q1.75536 2.07323 1.82028 2.10822Q1.88519 2.14321 1.95143 2.18403Q2.01766 2.22485 2.08508 2.27141Q2.1525 2.31798 2.22096 2.37019Q2.28943 2.4224 2.3588 2.48016Q2.42817 2.53792 2.49831 2.6011Q2.56844 2.66428 2.6392 2.73276Q2.70996 2.80124 2.7812 2.87488Z" transform="translate(-7.390976E-06 0)" id="Mask" fill="#FFFFFF" stroke="none" />
    </g>
    <g id="Rectangle" transform="translate(199.8105 0)">
      <path d="M8.17658 32.5943L67.7967 2.26695Q67.9109 2.20888 68.0243 2.15703Q68.1377 2.10519 68.25 2.05966Q68.3624 2.01414 68.4736 1.97504Q68.5847 1.93593 68.6945 1.90332Q68.8042 1.87071 68.9122 1.84467Q69.0202 1.81862 69.1264 1.79919Q69.2325 1.77976 69.3365 1.76699Q69.4405 1.75421 69.5422 1.74812Q69.6439 1.74203 69.7431 1.74263Q69.8422 1.74324 69.9387 1.75053Q70.0351 1.75783 70.1286 1.77181Q70.2221 1.78578 70.3124 1.8064Q70.4028 1.82703 70.4899 1.85426Q70.5769 1.8815 70.6605 1.91528Q70.7441 1.94906 70.824 1.98933Q70.9039 2.0296 70.98 2.07627Q71.0561 2.12294 71.1282 2.17592Q71.2003 2.22889 71.2684 2.28806Q71.3364 2.34724 71.4001 2.41249Q71.4639 2.47774 71.5232 2.54893Q71.5826 2.62013 71.6374 2.69712Q71.6922 2.77411 71.7425 2.85675Q71.7927 2.93938 71.8382 3.02749Q71.8837 3.1156 71.9244 3.209Q71.965 3.3024 72.0008 3.40091Q72.0366 3.49941 72.0674 3.60282Q72.0982 3.70623 72.1239 3.81432Q72.1497 3.92242 72.1704 4.03499Q72.1911 4.14756 72.2066 4.26437Q72.2222 4.38117 72.2325 4.50199Q72.2429 4.6228 72.2481 4.74736Q72.2533 4.87193 72.2533 5L72.2533 270.424Q72.2533 270.55 72.2493 270.67Q72.2454 270.791 72.2374 270.906Q72.2295 271.022 72.2176 271.132Q72.2057 271.242 72.1899 271.346Q72.1741 271.45 72.1544 271.549Q72.1347 271.647 72.1112 271.739Q72.0876 271.832 72.0603 271.918Q72.0329 272.004 72.0018 272.084Q71.9707 272.163 71.9359 272.236Q71.9011 272.309 71.8627 272.376Q71.8244 272.442 71.7824 272.501Q71.7405 272.561 71.6951 272.613Q71.6497 272.666 71.601 272.711Q71.5523 272.757 71.5003 272.795Q71.4483 272.833 71.3931 272.864Q71.338 272.895 71.2798 272.918Q71.2216 272.942 71.1605 272.958Q71.0994 272.974 71.0355 272.983Q70.9716 272.991 70.9051 272.993Q70.8385 272.994 70.7694 272.988Q70.7003 272.982 70.6288 272.968Q70.5574 272.955 70.4837 272.934Q70.4099 272.913 70.3341 272.884Q70.2583 272.856 70.1806 272.82Q70.1028 272.785 70.0233 272.742Q69.9438 272.699 69.8626 272.649Q69.7815 272.599 69.6989 272.542Q69.6163 272.485 69.5324 272.421Q69.4485 272.357 69.3635 272.286Q69.2785 272.216 69.1926 272.138Q69.1067 272.061 69.02 271.977Q68.9333 271.893 68.846 271.803L13.9071 215.022Q13.5509 214.654 13.1971 214.265Q12.8433 213.876 12.4926 213.467Q12.142 213.058 11.7952 212.63Q11.4483 212.202 11.1061 211.755Q10.7638 211.308 10.4268 210.844Q10.0898 210.38 9.75873 209.9Q9.42766 209.419 9.10321 208.923Q8.77876 208.427 8.46159 207.917Q8.14442 207.406 7.83518 206.882Q7.52594 206.358 7.22525 205.822Q6.92456 205.285 6.63305 204.738Q6.34154 204.19 6.05979 203.632Q5.77804 203.075 5.50663 202.508Q5.23522 201.941 4.97471 201.366Q4.71419 200.791 4.46511 200.21Q4.21602 199.628 3.97886 199.042Q3.74171 198.455 3.51697 197.863Q3.29223 197.272 3.08037 196.678Q2.86851 196.083 2.66996 195.487Q2.47141 194.891 2.28657 194.294Q2.10173 193.697 1.93098 193.1Q1.76023 192.504 1.60392 191.909Q1.44761 191.314 1.30606 190.723Q1.16451 190.131 1.038 189.543Q0.911494 188.956 0.800292 188.374Q0.689091 187.791 0.593421 187.216Q0.497751 186.64 0.417807 186.072Q0.337863 185.504 0.273809 184.945Q0.209755 184.386 0.161722 183.837Q0.113688 183.288 0.0817726 182.75Q0.0498572 182.213 0.0341252 181.687Q0.0183933 181.161 0.0188768 180.649L0.146271 45.6748Q0.146488 45.4442 0.156056 45.2105Q0.165624 44.9768 0.184522 44.7403Q0.20342 44.5038 0.231609 44.2651Q0.259799 44.0264 0.297224 43.7859Q0.334648 43.5454 0.38123 43.3037Q0.427813 43.0619 0.483458 42.8194Q0.539103 42.5768 0.603698 42.334Q0.668293 42.0912 0.741706 41.8486Q0.815118 41.606 0.897199 41.3641Q0.979279 41.1222 1.06986 40.8815Q1.16044 40.6407 1.25934 40.4017Q1.35823 40.1627 1.46525 39.9259Q1.57226 39.689 1.68716 39.4548Q1.80207 39.2207 1.92464 38.9896Q2.0472 38.7586 2.17718 38.5311Q2.30716 38.3037 2.44429 38.0803Q2.58141 37.857 2.7254 37.6381Q2.86939 37.4193 3.01996 37.2055Q3.17052 36.9916 3.32735 36.7832Q3.48418 36.5747 3.64695 36.3721Q3.80973 36.1695 3.97811 35.9731Q4.1465 35.7768 4.32016 35.5871Q4.49382 35.3974 4.67239 35.2147Q4.85096 35.032 5.03409 34.8568Q5.21721 34.6815 5.40451 34.514Q5.59182 34.3465 5.78291 34.1872Q5.97401 34.0278 6.16851 33.8768Q6.36302 33.7259 6.56053 33.5837Q6.75804 33.4415 6.95816 33.3083Q7.15828 33.1751 7.36059 33.0513Q7.56291 32.9274 7.76701 32.8131Q7.97111 32.6988 8.17658 32.5943Z" id="Mask" fill="#FFFFFF" stroke="none" />
    </g>
  </g>
</svg>